<svg width="238" height="71" viewBox="0 0 238 71" fill="none" xmlns="http://www.w3.org/2000/svg">
<path d="M23.7681 69V10.824H22.0401L13.0161 32.136H0.1521L13.8801 1.79999H36.0561V69H23.7681Z" fill="#EF233E"/>
<path d="M73.5104 70.344C65.5744 70.344 59.2063 68.168 54.4063 63.816C49.6063 59.4 47.2063 52.744 47.2063 43.848V26.952C47.2063 18.312 49.6063 11.752 54.4063 7.272C59.2063 2.72799 65.5744 0.455994 73.5104 0.455994C81.5104 0.455994 87.8784 2.72799 92.6143 7.272C97.4144 11.752 99.8144 18.312 99.8144 26.952V43.848C99.8144 52.744 97.4144 59.4 92.6143 63.816C87.8784 68.168 81.5104 70.344 73.5104 70.344ZM73.5104 59.4C78.3104 59.4 81.8304 58.088 84.0704 55.464C86.3744 52.84 87.5264 49.096 87.5264 44.232V26.376C87.5264 21.448 86.2463 17.736 83.6863 15.24C81.1903 12.68 77.7984 11.4 73.5104 11.4C69.0944 11.4 65.6384 12.712 63.1423 15.336C60.7103 17.96 59.4944 21.64 59.4944 26.376V44.232C59.4944 49.288 60.6464 53.096 62.9504 55.656C65.3184 58.152 68.8384 59.4 73.5104 59.4Z" fill="#EF233E"/>
<path d="M135.76 70.344C127.824 70.344 121.456 68.168 116.656 63.816C111.856 59.4 109.456 52.744 109.456 43.848V26.952C109.456 18.312 111.856 11.752 116.656 7.272C121.456 2.72799 127.824 0.455994 135.76 0.455994C143.76 0.455994 150.128 2.72799 154.864 7.272C159.664 11.752 162.064 18.312 162.064 26.952V43.848C162.064 52.744 159.664 59.4 154.864 63.816C150.128 68.168 143.76 70.344 135.76 70.344ZM135.76 59.4C140.56 59.4 144.08 58.088 146.32 55.464C148.624 52.84 149.776 49.096 149.776 44.232V26.376C149.776 21.448 148.496 17.736 145.936 15.24C143.44 12.68 140.048 11.4 135.76 11.4C131.344 11.4 127.888 12.712 125.392 15.336C122.96 17.96 121.744 21.64 121.744 26.376V44.232C121.744 49.288 122.896 53.096 125.2 55.656C127.568 58.152 131.088 59.4 135.76 59.4Z" fill="#EF233E"/>
<path d="M181.114 70.248L173.818 64.392L225.466 0.551992L232.762 6.408L181.114 70.248ZM221.626 69.96C216.762 69.96 212.954 68.68 210.202 66.12C207.45 63.496 206.074 59.944 206.074 55.464V54.792C206.074 50.248 207.45 46.696 210.202 44.136C212.954 41.512 216.762 40.2 221.626 40.2C226.362 40.2 230.138 41.512 232.954 44.136C235.77 46.696 237.178 50.248 237.178 54.792V55.464C237.178 59.944 235.802 63.496 233.05 66.12C230.298 68.68 226.49 69.96 221.626 69.96ZM221.626 62.088C223.482 62.088 224.922 61.512 225.946 60.36C227.034 59.208 227.578 57.704 227.578 55.848V54.312C227.578 52.456 227.034 50.952 225.946 49.8C224.922 48.648 223.482 48.072 221.626 48.072C219.77 48.072 218.298 48.648 217.21 49.8C216.186 50.952 215.674 52.456 215.674 54.312V55.848C215.674 57.704 216.186 59.208 217.21 60.36C218.298 61.512 219.77 62.088 221.626 62.088ZM184.954 30.6C180.09 30.6 176.282 29.32 173.53 26.76C170.778 24.136 169.402 20.584 169.402 16.104V15.432C169.402 10.888 170.778 7.336 173.53 4.776C176.282 2.15199 180.09 0.839994 184.954 0.839994C189.69 0.839994 193.466 2.15199 196.282 4.776C199.098 7.336 200.506 10.888 200.506 15.432V16.104C200.506 20.584 199.13 24.136 196.378 26.76C193.626 29.32 189.818 30.6 184.954 30.6ZM184.954 22.728C186.81 22.728 188.25 22.152 189.274 21C190.362 19.848 190.906 18.344 190.906 16.488V14.952C190.906 13.096 190.362 11.592 189.274 10.44C188.25 9.288 186.81 8.712 184.954 8.712C183.098 8.712 181.626 9.288 180.538 10.44C179.514 11.592 179.002 13.096 179.002 14.952V16.488C179.002 18.344 179.514 19.848 180.538 21C181.626 22.152 183.098 22.728 184.954 22.728Z" fill="#EF233E"/>
</svg>
