<svg width="462" height="94" viewBox="0 0 462 94" fill="none" xmlns="http://www.w3.org/2000/svg">
<g clip-path="url(#clip0_67_484)">
<path d="M85.21 91V1.39999H101.338V35.32H103.642C104.325 33.9547 105.391 32.5893 106.842 31.224C108.293 29.8587 110.213 28.7493 112.602 27.896C115.077 26.9573 118.191 26.488 121.946 26.488C126.895 26.488 131.205 27.64 134.874 29.944C138.629 32.1627 141.53 35.2773 143.578 39.288C145.626 43.2133 146.65 47.8213 146.65 53.112V91H130.522V54.392C130.522 49.6133 129.327 46.0293 126.938 43.64C124.634 41.2507 121.306 40.056 116.954 40.056C112.005 40.056 108.165 41.72 105.434 45.048C102.703 48.2907 101.338 52.856 101.338 58.744V91H85.21Z" fill="white"/>
<path d="M194.293 92.792C187.978 92.792 182.304 91.512 177.269 88.952C172.234 86.392 168.266 82.68 165.365 77.816C162.464 72.952 161.013 67.1067 161.013 60.28V58.232C161.013 51.4053 162.464 45.56 165.365 40.696C168.266 35.832 172.234 32.12 177.269 29.56C182.304 27 187.978 25.72 194.293 25.72C200.608 25.72 206.282 27 211.317 29.56C216.352 32.12 220.32 35.832 223.221 40.696C226.122 45.56 227.573 51.4053 227.573 58.232V60.28C227.573 67.1067 226.122 72.952 223.221 77.816C220.32 82.68 216.352 86.392 211.317 88.952C206.282 91.512 200.608 92.792 194.293 92.792ZM194.293 78.456C199.242 78.456 203.338 76.8773 206.581 73.72C209.824 70.4773 211.445 65.8693 211.445 59.896V58.616C211.445 52.6427 209.824 48.0773 206.581 44.92C203.424 41.6773 199.328 40.056 194.293 40.056C189.344 40.056 185.248 41.6773 182.005 44.92C178.762 48.0773 177.141 52.6427 177.141 58.616V59.896C177.141 65.8693 178.762 70.4773 182.005 73.72C185.248 76.8773 189.344 78.456 194.293 78.456Z" fill="white"/>
<path d="M242.46 91V27.512H258.332V34.68H260.636C261.575 32.12 263.111 30.2427 265.244 29.048C267.463 27.8533 270.023 27.256 272.924 27.256H280.604V41.592H272.668C268.572 41.592 265.201 42.7013 262.556 44.92C259.911 47.0533 258.588 50.3813 258.588 54.904V91H242.46Z" fill="white"/>
<path d="M317.53 91C313.349 91 309.935 89.72 307.29 87.16C304.73 84.5147 303.45 81.016 303.45 76.664V40.824H287.578V27.512H303.45V7.8H319.578V27.512H336.986V40.824H319.578V73.848C319.578 76.408 320.773 77.688 323.162 77.688H335.45V91H317.53Z" fill="white"/>
<path d="M378.263 92.792C371.948 92.792 366.359 91.4693 361.495 88.824C356.716 86.0933 352.962 82.296 350.231 77.432C347.586 72.4827 346.263 66.68 346.263 60.024V58.488C346.263 51.832 347.586 46.072 350.231 41.208C352.876 36.2587 356.588 32.4613 361.367 29.816C366.146 27.0853 371.692 25.72 378.007 25.72C384.236 25.72 389.655 27.128 394.263 29.944C398.871 32.6747 402.455 36.5147 405.015 41.464C407.575 46.328 408.855 52.0027 408.855 58.488V63.992H362.647C362.818 68.344 364.439 71.8853 367.511 74.616C370.583 77.3467 374.338 78.712 378.775 78.712C383.298 78.712 386.626 77.7307 388.759 75.768C390.892 73.8053 392.514 71.6293 393.623 69.24L406.807 76.152C405.612 78.3707 403.863 80.8027 401.559 83.448C399.34 86.008 396.354 88.2267 392.599 90.104C388.844 91.896 384.066 92.792 378.263 92.792ZM362.775 51.96H392.471C392.13 48.2907 390.636 45.3467 387.991 43.128C385.431 40.9093 382.06 39.8 377.879 39.8C373.527 39.8 370.071 40.9093 367.511 43.128C364.951 45.3467 363.372 48.2907 362.775 51.96Z" fill="white"/>
<path d="M423.21 91V27.512H439.082V34.68H441.386C442.325 32.12 443.861 30.2427 445.994 29.048C448.213 27.8533 450.773 27.256 453.674 27.256H461.354V41.592H453.418C449.322 41.592 445.951 42.7013 443.306 44.92C440.661 47.0533 439.338 50.3813 439.338 54.904V91H423.21Z" fill="white"/>
<path d="M9.728 83.968C15.414 89.3547 22.8709 92.38 32.0989 93.044C34.3024 93.2025 36.096 91.3931 36.096 89.184V82.08C36.096 79.8709 34.2922 78.127 32.1108 77.7783C27.9951 77.1203 24.6302 75.3862 22.016 72.576C18.6027 68.8213 16.896 63.8293 16.896 57.6V35.584C16.896 29.2693 18.6027 24.2773 22.016 20.608C25.4293 16.9387 30.1227 15.104 36.096 15.104C42.1547 15.104 46.6347 16.8107 49.536 20.224C51.7362 22.7386 53.126 25.7625 53.7054 29.2959C54.0628 31.476 55.8069 33.28 58.016 33.28H66.6652C68.8744 33.28 70.6875 31.4848 70.5078 29.283C69.8144 20.7843 66.8304 14.2763 61.568 9.08801C55.5947 3.02934 47.104 0 36.096 0C25.0027 0 16.2133 3.11467 9.728 9.344C3.24267 15.488 0 24.32 0 35.84V57.344C0 68.864 3.24267 77.7387 9.728 83.968Z" fill="white"/>
<path fill-rule="evenodd" clip-rule="evenodd" d="M105.861 16.8284C104.299 15.2663 101.767 15.2663 100.205 16.8284L62.0269 55.0061L40.8493 33.8284C39.2872 32.2663 36.7545 32.2663 35.1924 33.8284L28.8284 40.1924C27.2663 41.7545 27.2663 44.2871 28.8284 45.8492L52.647 69.6678C52.7049 69.7338 52.7654 69.7984 52.8284 69.8614L59.1923 76.2254C60.7544 77.7875 63.2871 77.7875 64.8492 76.2254L112.225 28.8492C113.787 27.2872 113.787 24.7545 112.225 23.1924L105.861 16.8284ZM52.647 69.6678L58.5269 75.5477C60.089 77.1098 62.6217 77.1098 64.1838 75.5477L70.5477 69.1838C72.1098 67.6217 72.1098 65.089 70.5477 63.5269L62.0269 55.0061L52.8284 64.2046C51.3293 65.7037 51.2688 68.0966 52.647 69.6678Z" fill="#EF233C"/>
<path d="M70.5477 69.1838C72.1098 67.6217 72.1098 65.089 70.5477 63.5269L62.0269 55.0061L52.8284 64.2046C51.3293 65.7037 51.2688 68.0966 52.647 69.6678L58.5269 75.5477C60.089 77.1098 62.6217 77.1098 64.1838 75.5477L70.5477 69.1838Z" fill="#EF233C"/>
</g>
<defs>
<clipPath id="clip0_67_484">
<rect width="462" height="94" fill="white"/>
</clipPath>
</defs>
</svg>
