<svg viewBox="0 0 462 95" fill="none" xmlns="http://www.w3.org/2000/svg">
<path d="M85 92.6V3H101.128V36.92H103.432C104.115 35.5547 105.181 34.1893 106.632 32.824C108.083 31.4587 110.003 30.3493 112.392 29.496C114.867 28.5573 117.981 28.088 121.736 28.088C126.685 28.088 130.995 29.24 134.664 31.544C138.419 33.7627 141.32 36.8773 143.368 40.888C145.416 44.8133 146.44 49.4213 146.44 54.712V92.6H130.312V55.992C130.312 51.2133 129.117 47.6293 126.728 45.24C124.424 42.8507 121.096 41.656 116.744 41.656C111.795 41.656 107.955 43.32 105.224 46.648C102.493 49.8907 101.128 54.456 101.128 60.344V92.6H85Z" fill="black"/>
<path d="M194.083 94.392C187.768 94.392 182.094 93.112 177.059 90.552C172.024 87.992 168.056 84.28 165.155 79.416C162.254 74.552 160.803 68.7067 160.803 61.88V59.832C160.803 53.0053 162.254 47.16 165.155 42.296C168.056 37.432 172.024 33.72 177.059 31.16C182.094 28.6 187.768 27.32 194.083 27.32C200.398 27.32 206.072 28.6 211.107 31.16C216.142 33.72 220.11 37.432 223.011 42.296C225.912 47.16 227.363 53.0053 227.363 59.832V61.88C227.363 68.7067 225.912 74.552 223.011 79.416C220.11 84.28 216.142 87.992 211.107 90.552C206.072 93.112 200.398 94.392 194.083 94.392ZM194.083 80.056C199.032 80.056 203.128 78.4773 206.371 75.32C209.614 72.0773 211.235 67.4693 211.235 61.496V60.216C211.235 54.2427 209.614 49.6773 206.371 46.52C203.214 43.2773 199.118 41.656 194.083 41.656C189.134 41.656 185.038 43.2773 181.795 46.52C178.552 49.6773 176.931 54.2427 176.931 60.216V61.496C176.931 67.4693 178.552 72.0773 181.795 75.32C185.038 78.4773 189.134 80.056 194.083 80.056Z" fill="black"/>
<path d="M242.25 92.6V29.112H258.122V36.28H260.426C261.365 33.72 262.901 31.8427 265.034 30.648C267.253 29.4533 269.813 28.856 272.714 28.856H280.394V43.192H272.458C268.362 43.192 264.991 44.3013 262.346 46.52C259.701 48.6533 258.378 51.9813 258.378 56.504V92.6H242.25Z" fill="black"/>
<path d="M317.32 92.6C313.139 92.6 309.725 91.32 307.08 88.76C304.52 86.1147 303.24 82.616 303.24 78.264V42.424H287.368V29.112H303.24V9.4H319.368V29.112H336.776V42.424H319.368V75.448C319.368 78.008 320.563 79.288 322.952 79.288H335.24V92.6H317.32Z" fill="black"/>
<path d="M378.053 94.392C371.738 94.392 366.149 93.0693 361.285 90.424C356.506 87.6933 352.752 83.896 350.021 79.032C347.376 74.0827 346.053 68.28 346.053 61.624V60.088C346.053 53.432 347.376 47.672 350.021 42.808C352.666 37.8587 356.378 34.0613 361.157 31.416C365.936 28.6853 371.482 27.32 377.797 27.32C384.026 27.32 389.445 28.728 394.053 31.544C398.661 34.2747 402.245 38.1147 404.805 43.064C407.365 47.928 408.645 53.6027 408.645 60.088V65.592H362.437C362.608 69.944 364.229 73.4853 367.301 76.216C370.373 78.9467 374.128 80.312 378.565 80.312C383.088 80.312 386.416 79.3307 388.549 77.368C390.682 75.4053 392.304 73.2293 393.413 70.84L406.597 77.752C405.402 79.9707 403.653 82.4027 401.349 85.048C399.13 87.608 396.144 89.8267 392.389 91.704C388.634 93.496 383.856 94.392 378.053 94.392ZM362.565 53.56H392.261C391.92 49.8907 390.426 46.9467 387.781 44.728C385.221 42.5093 381.85 41.4 377.669 41.4C373.317 41.4 369.861 42.5093 367.301 44.728C364.741 46.9467 363.162 49.8907 362.565 53.56Z" fill="black"/>
<path d="M423 92.6V29.112H438.872V36.28H441.176C442.115 33.72 443.651 31.8427 445.784 30.648C448.003 29.4533 450.563 28.856 453.464 28.856H461.144V43.192H453.208C449.112 43.192 445.741 44.3013 443.096 46.52C440.451 48.6533 439.128 51.9813 439.128 56.504V92.6H423Z" fill="black"/>
<path d="M112.885 23.5307L106.479 17.1102C104.907 15.5342 102.357 15.5342 100.785 17.1102L62.3526 55.6269L41.0339 34.2612C39.4614 32.6852 36.9119 32.6852 35.3394 34.2612L28.933 40.6816C27.3605 42.2576 27.3605 44.8128 28.933 46.3887L59.4992 77.0346C61.0717 78.6106 63.6212 78.6106 65.1937 77.0346L112.885 29.2378C114.458 27.6618 114.458 25.1066 112.885 23.5307Z" fill="#EF233E"/>
<path d="M9.7928 84.7136C15.5166 90.1482 23.0233 93.2004 32.3127 93.8702C34.5309 94.0302 36.3364 92.2047 36.3364 89.976V82.8089C36.3364 80.5801 34.5207 78.8208 32.3247 78.4689C28.1816 77.8051 24.7942 76.0556 22.1627 73.2205C18.7266 69.4325 17.0085 64.3961 17.0085 58.1115V35.9C17.0085 29.5292 18.7266 24.4929 22.1627 20.791C25.5987 17.0891 30.3233 15.2381 36.3364 15.2381C42.4355 15.2381 46.9453 16.9599 49.866 20.4036C52.0809 22.9405 53.4799 25.9913 54.0631 29.5561C54.423 31.7555 56.1786 33.5755 58.4025 33.5755H67.1093C69.3331 33.5755 71.1583 31.7644 70.9775 29.543C70.2794 20.9688 67.2756 14.4031 61.9781 9.16871C55.965 3.05624 47.4178 0 36.3364 0C25.1692 0 16.3213 3.14233 9.7928 9.42698C3.26427 15.6255 0 24.536 0 36.1583V57.8532C0 69.4755 3.26427 78.429 9.7928 84.7136Z" fill="black"/>
</svg>
