<svg width="115" height="94" viewBox="0 0 115 94" fill="none" xmlns="http://www.w3.org/2000/svg">
<g clip-path="url(#clip0_264_284)">
<path d="M112.885 23.5307L106.479 17.1102C104.907 15.5342 102.357 15.5342 100.785 17.1102L62.3526 55.6269L41.0339 34.2612C39.4614 32.6852 36.9119 32.6852 35.3394 34.2612L28.933 40.6816C27.3605 42.2576 27.3605 44.8127 28.933 46.3887L59.4992 77.0346C61.0717 78.6106 63.6212 78.6106 65.1937 77.0346L112.885 29.2378C114.458 27.6618 114.458 25.1066 112.885 23.5307Z" fill="#EF233E"/>
<path d="M9.7928 84.7136C15.5166 90.1482 23.0233 93.2004 32.3127 93.8702C34.5309 94.0302 36.3364 92.2047 36.3364 89.976V82.8089C36.3364 80.5801 34.5207 78.8208 32.3247 78.4689C28.1816 77.8051 24.7942 76.0557 22.1627 73.2205C18.7266 69.4325 17.0085 64.3961 17.0085 58.1115V35.9C17.0085 29.5292 18.7266 24.4929 22.1627 20.791C25.5987 17.0891 30.3233 15.2381 36.3364 15.2381C42.4355 15.2381 46.9453 16.9599 49.866 20.4036C52.0809 22.9405 53.4799 25.9913 54.0631 29.5561C54.423 31.7555 56.1786 33.5755 58.4025 33.5755H67.1093C69.3331 33.5755 71.1583 31.7644 70.9775 29.543C70.2794 20.9688 67.2756 14.4031 61.9781 9.16871C55.965 3.05624 47.4178 0 36.3364 0C25.1692 0 16.3213 3.14233 9.7928 9.42698C3.26427 15.6255 0 24.536 0 36.1583V57.8532C0 69.4755 3.26427 78.429 9.7928 84.7136Z" fill="white"/>
</g>
<defs>
<clipPath id="clip0_264_284">
<rect width="115" height="94" fill="white"/>
</clipPath>
</defs>
</svg>
